# xmcd
#
# Track frame offsets:
#	150
#	22635
#	47675
#	68966
#	86670
#	114364
#	134616
#
# Disc length: 1918 seconds
#
# Revision: 3
# Processed by: cddbd v1.5.1PL0 Copyright (c) Steve Scherf et al.
# Submitted via: EasyCDDAExtractor 8.0.2.1
#
DISCID=54077c07
DTITLE=Ozzy Osbourne - Olympen Lund 04-12-83 Disc 2
DYEAR=1983
DGENRE=Hard Rock
TTITLE0=Journey To The Centre Of Eternity
TTITLE1=Carmine Appice Drum Solo
TTITLE2=Flying High Again
TTITLE3=Iron Man
TTITLE4=Crazy Train
TTITLE5=Paranoid
TTITLE6=Outro
EXTD=
EXTT0=
EXTT1=
EXTT2=
EXTT3=
EXTT4=
EXTT5=
EXTT6=
PLAYORDER=
